custom-analysis
version=1
nRows=4
nColumns=98
inDegrees=no

This file contains tibia displacement and acting force.

Units are S.I. units (seconds, meters, Newtons, ...)
Angles are in degrees.

endheader
time	APT	SIT	knee_angle	aACL_R_force	pACL_R_force	aPCL_R_force	pPCL_R_force	aMCL_R_force	mMCL_R_force	pMCL_R_force	aLCL_R_force	mLCL_R_force	pLCL_R_force	aPCL_L_force	pPCL_L_force	aMCL_L_force	aLCL_L_force	aACL_R_length	pACL_R_length	aPCL_R_length	pPCL_R_length	aMCL_R_length	mMCL_R_length	pMCL_R_length	aLCL_R_length	mLCL_R_length	pLCL_R_length	aPCL_L_length	pPCL_L_length	aMCL_L_length	aLCL_L_length	aACL_R_strain	pACL_R_strain	aPCL_R_strain	pPCL_R_strain	aMCL_R_strain	mMCL_R_strain	pMCL_R_strain	aLCL_R_strain	mLCL_R_strain	pLCL_R_strain	aPCL_L_strain	pPCL_L_strain	aMCL_L_strain	aLCL_L_strain	femur_lat_meniscii_r.femur_lat_r.force.X	femur_lat_meniscii_r.femur_lat_r.force.Y	femur_lat_meniscii_r.femur_lat_r.force.Z	femur_lat_meniscii_r.femur_lat_r.torque.X	femur_lat_meniscii_r.femur_lat_r.torque.Y	femur_lat_meniscii_r.femur_lat_r.torque.Z	femur_lat_meniscii_r.meniscus_lat_r.force.X	femur_lat_meniscii_r.meniscus_lat_r.force.Y	femur_lat_meniscii_r.meniscus_lat_r.force.Z	femur_lat_meniscii_r.meniscus_lat_r.torque.X	femur_lat_meniscii_r.meniscus_lat_r.torque.Y	femur_lat_meniscii_r.meniscus_lat_r.torque.Z	femur_med_meniscii_r.femur_med_r.force.X	femur_med_meniscii_r.femur_med_r.force.Y	femur_med_meniscii_r.femur_med_r.force.Z	femur_med_meniscii_r.femur_med_r.torque.X	femur_med_meniscii_r.femur_med_r.torque.Y	femur_med_meniscii_r.femur_med_r.torque.Z	femur_med_meniscii_r.meniscus_med_r.force.X	femur_med_meniscii_r.meniscus_med_r.force.Y	femur_med_meniscii_r.meniscus_med_r.force.Z	femur_med_meniscii_r.meniscus_med_r.torque.X	femur_med_meniscii_r.meniscus_med_r.torque.Y	femur_med_meniscii_r.meniscus_med_r.torque.Z	femur_med_tibia_r.tibia_upper_r.force.X	femur_med_tibia_r.tibia_upper_r.force.Y	femur_med_tibia_r.tibia_upper_r.force.Z	femur_med_tibia_r.tibia_upper_r.torque.X	femur_med_tibia_r.tibia_upper_r.torque.Y	femur_med_tibia_r.tibia_upper_r.torque.Z	femur_med_tibia_r.femur_med_r.force.X	femur_med_tibia_r.femur_med_r.force.Y	femur_med_tibia_r.femur_med_r.force.Z	femur_med_tibia_r.femur_med_r.torque.X	femur_med_tibia_r.femur_med_r.torque.Y	femur_med_tibia_r.femur_med_r.torque.Z	femur_lat_tibia_r.tibia_upper_r.force.X	femur_lat_tibia_r.tibia_upper_r.force.Y	femur_lat_tibia_r.tibia_upper_r.force.Z	femur_lat_tibia_r.tibia_upper_r.torque.X	femur_lat_tibia_r.tibia_upper_r.torque.Y	femur_lat_tibia_r.tibia_upper_r.torque.Z	femur_lat_tibia_r.femur_lat_r.force.X	femur_lat_tibia_r.femur_lat_r.force.Y	femur_lat_tibia_r.femur_lat_r.force.Z	femur_lat_tibia_r.femur_lat_r.torque.X	femur_lat_tibia_r.femur_lat_r.torque.Y	femur_lat_tibia_r.femur_lat_r.torque.Z	femur_lat_meniscii_force_r	femur_med_meniscii_force_r	femur_lat_tibia_force_r	femur_med_tibia_force_r
      0.10701210	      0.00825340	      0.00739368	     27.71199459	     11.12278843	    -11.05234596	      0.00000000	     54.67427148	      0.00000000	      0.00000000	    -37.06828892	      0.00000000	      0.00000000	      0.00000000	      0.00000000	      0.00000000	      0.00000001	      0.00000000	      0.03255754	      0.02551089	      0.03085423	      0.03005821	      0.05721115	      0.05954560	      0.05891802	      0.05339197	      0.05036701	      0.04684546	      0.01525851	      0.01651186	      0.06550154	      0.04489616	      0.05005700	      0.01804513	     -0.00775273	      0.00570175	     -0.04690976	     -0.00414597	      0.00323560	     -0.04618362	     -0.10567721	     -0.10502409	      0.00000079	     -0.32847694	      0.00000060	     -0.00000086	     53.73626556	    258.34909004	     40.30622803	    -22.83310260	      1.40511367	     21.23722889	    -53.73626556	   -258.34909004	    -40.30622803	      7.99237503	     -1.92197453	      1.86133069	    -29.33641126	     54.97449006	      5.11248519	     -0.78487937	      0.69643392	    -12.01637256	     29.33641126	    -54.97449006	     -5.11248519	     -1.04867711	     -0.68244835	      1.34469052	    -84.73578650	   -505.33413142	    115.99842181	    -12.00862623	      2.19940536	      0.83939270	     84.73578650	    505.33413142	   -115.99842181	     57.46695767	     -1.23862684	     36.55302677	    -44.14373414	   -168.83452974	    -42.67468809	      5.77918734	     -1.56669204	      0.21979636	     44.14373414	    168.83452974	     42.67468809	    -21.72233825	      1.04751331	     18.32622114	    266.93900161	     62.52165295	    179.65215473	    525.35547180
      0.10771614	      0.00830238	      0.00748796	     28.02973393	     10.67229956	    -11.39807233	      0.00000000	     55.58985121	      0.00000000	      0.00000000	    -37.07895591	      0.00000000	      0.00000000	      0.00000000	      0.00000000	      0.00000000	      0.00000001	      0.00000000	      0.03254367	      0.02548731	      0.03090827	      0.03009589	      0.05723777	      0.05954210	      0.05888211	      0.05338675	      0.05034215	      0.04680097	      0.01525851	      0.01651186	      0.06550154	      0.04489616	      0.04960974	      0.01710441	     -0.00601490	      0.00696249	     -0.04646619	     -0.00420449	      0.00262418	     -0.04627682	     -0.10611863	     -0.10587392	      0.00000079	     -0.32847694	      0.00000060	     -0.00000086	     51.53622443	    258.18698160	     40.51852504	    -22.91674810	      1.34321742	     20.28867651	    -51.53622443	   -258.18698160	    -40.51852504	      7.98653397	     -1.86001593	      1.99440296	    -29.35310162	     55.49095373	      5.87455395	     -1.09202113	      0.69314732	    -12.02821199	     29.35310162	    -55.49095373	     -5.87455395	     -1.03344815	     -0.68817845	      1.36104582	    -87.87578086	   -505.78196457	    115.50117818	    -12.00438628	      2.26144987	      0.79890661	     87.87578086	    505.78196457	   -115.50117818	     57.25827569	     -1.29766889	     37.85164201	    -42.03536105	   -161.93947156	    -41.07597926	      5.53972740	     -1.50414922	      0.25948510	     42.03536105	    161.93947156	     41.07597926	    -20.89187948	      1.00239226	     17.42938139	    266.37989933	     63.05046316	    172.27478080	    526.19204736
      0.10842018	      0.00835282	      0.00758327	     28.34904402	     10.04373850	    -11.87591338	      0.00000000	     56.81248400	      0.00000000	      0.00000000	    -37.34348456	      0.00000000	      0.00000000	      0.00000000	      0.00000000	      0.00000000	      0.00000001	      0.00000000	      0.03252947	      0.02546347	      0.03096203	      0.03013292	      0.05726457	      0.05953847	      0.05884608	      0.05338146	      0.05031700	      0.04675612	      0.01525851	      0.01651186	      0.06550154	      0.04489616	      0.04915167	      0.01615296	     -0.00428600	      0.00820134	     -0.04601983	     -0.00426514	      0.00201057	     -0.04637145	     -0.10656515	     -0.10673090	      0.00000079	     -0.32847694	      0.00000060	     -0.00000086	     49.26738690	    257.69337276	     39.89444262	    -22.63436326	      1.27782891	     19.30994675	    -49.26738690	   -257.69337276	    -39.89444262	      7.93385102	     -1.78626450	      2.12853567	    -28.21475581	     56.03456128	      6.35295997	     -1.27783387	      0.66418443	    -11.55071589	     28.21475581	    -56.03456128	     -6.35295997	     -1.03104605	     -0.66799196	      1.33010534	    -91.50542003	   -505.71678246	    115.34695241	    -12.00173449	      2.33543850	      0.73526002	     91.50542003	    505.71678246	   -115.34695241	     57.18167763	     -1.36598257	     39.35665149	    -40.73633574	   -155.42292900	    -39.74929568	      5.32073901	     -1.46348013	      0.27044524	     40.73633574	    155.42292900	     39.74929568	    -20.18458779	      0.97476465	     16.87341393	    265.37655573	     63.05794640	    165.51659256	    526.71398822
      0.10912422	      0.00840419	      0.00767976	     28.66981802	      9.34684926	    -12.38677421	      0.00000000	     58.31333320	      0.00000000	      0.00000000	    -37.71554589	      0.00000000	      0.00000000	      0.00000000	      0.00000000	      0.00000000	      0.00000001	      0.00000000	      0.03251464	      0.02543912	      0.03101554	      0.03016933	      0.05729131	      0.05953453	      0.05880972	      0.05337589	      0.05029137	      0.04671070	      0.01525851	      0.01651186	      0.06550154	      0.04489616	      0.04867332	      0.01518129	     -0.00256498	      0.00941969	     -0.04557438	     -0.00433115	      0.00139144	     -0.04647093	     -0.10702025	     -0.10759858	      0.00000079	     -0.32847694	      0.00000060	     -0.00000086	     47.83025742	    259.03246181	     40.02853246	    -22.72487425	      1.23905935	     18.68035383	    -47.83025742	   -259.03246181	    -40.02853246	      7.96830482	     -1.74873584	      2.25054763	    -27.45811748	     56.10145927	      7.02978834	     -1.55639553	      0.64820808	    -11.24008704	     27.45811748	    -56.10145927	     -7.02978834	     -1.01275036	     -0.66203393	      1.31542701	    -94.58236535	   -507.23732013	    115.60190809	    -12.03888133	      2.40349815	      0.71347620	     94.58236535	    507.23732013	   -115.60190809	     57.30519435	     -1.42273644	     40.62558108	    -39.68941244	   -150.53272497	    -38.33397829	      5.13826590	     -1.42761535	      0.28610038	     39.68941244	    150.53272497	     38.33397829	    -19.47599437	      0.95242402	     16.42460625	    266.43542034	     62.85491128	    160.32730472	    528.77152337
